<svg
    xmlns="http://www.w3.org/2000/svg"
    xmlns:xlink="http://www.w3.org/1999/xlink"
    data-name="Layer 1"
    width="200"
    height="200"
    viewBox="0 0 1022.76 792.74"
>

                            <circle
                                cx="796.99"
                                cy="231.84"
                                r="17.76"
                                fill="#6c63ff"
                            />
                            <circle
                                cx="796.99"
                                cy="231.84"
                                r="11.98"
                                fill="#6c63ff"
                            />
                            <circle
                                cx="796.99"
                                cy="231.84"
                                r="11.98"
                                fill="#f5f5f5"
                                opacity="0.2"
                            />
                            <circle
                                cx="796.99"
                                cy="231.84"
                                r="7.85"
                                fill="#6c63ff"
                            />
                            <circle
                                cx="796.99"
                                cy="231.84"
                                r="7.85"
                                opacity="0.25"
                            />
                            <path
                                d="M857.93,259s-24,21.07-20.65,62.78c0,0,2.89,5.37,10.33,0,0,0-6.2-52.87,35.11-62.78Z"
                                transform="translate(-88.62 -53.63)"
                                fill="#6c63ff"
                            />
                            <path
                                d="M913.28,259s24,21.07,20.65,62.78c0,0-2.89,5.37-10.33,0,0,0,6.2-52.87-35.11-62.78Z"
                                transform="translate(-88.62 -53.63)"
                                fill="#6c63ff"
                            />
                            <rect
                                x="759.2"
                                y="169.47"
                                width="72.7"
                                height="40.27"
                                rx="16.95"
                                ry="16.95"
                                fill="#6c63ff"
                            />
                            <path
                                d="M859.72,254.24,803,252.65a8.51,8.51,0,0,1-8.27-8.5V242a8.51,8.51,0,0,1,8.13-8.5l56.72-2.54a8.51,8.51,0,0,1,8.89,8.5v6.31A8.51,8.51,0,0,1,859.72,254.24Z"
                                transform="translate(-88.62 -53.63)"
                                fill="#6c63ff"
                            />
                            <path
                                d="M911.08,254.24l56.72-1.59a8.51,8.51,0,0,0,8.27-8.5V242a8.51,8.51,0,0,0-8.13-8.5l-56.72-2.54a8.51,8.51,0,0,0-8.89,8.5v6.31A8.51,8.51,0,0,0,911.08,254.24Z"
                                transform="translate(-88.62 -53.63)"
                                fill="#6c63ff"
                            />
                            <path
                                d="M859.72,254.24,803,252.65a8.51,8.51,0,0,1-8.27-8.5V242a8.51,8.51,0,0,1,8.13-8.5l56.72-2.54a8.51,8.51,0,0,1,8.89,8.5v6.31A8.51,8.51,0,0,1,859.72,254.24Z"
                                transform="translate(-88.62 -53.63)"
                                fill="#f5f5f5"
                                opacity="0.2"
                            />
                            <path
                                d="M911.08,254.24l56.72-1.59a8.51,8.51,0,0,0,8.27-8.5V242a8.51,8.51,0,0,0-8.13-8.5l-56.72-2.54a8.51,8.51,0,0,0-8.89,8.5v6.31A8.51,8.51,0,0,0,911.08,254.24Z"
                                transform="translate(-88.62 -53.63)"
                                fill="#f5f5f5"
                                opacity="0.2"
                            />
                            <rect
                                x="688.77"
                                y="176.08"
                                width="21.89"
                                height="24.37"
                                rx="9.21"
                                ry="9.21"
                                fill="#6c63ff"
                            />
                            <rect
                                x="883.32"
                                y="176.08"
                                width="21.89"
                                height="24.37"
                                rx="9.21"
                                ry="9.21"
                                fill="#6c63ff"
                            />
                            <rect
                                x="693.31"
                                y="170.71"
                                width="13.22"
                                height="6.61"
                                rx="2.78"
                                ry="2.78"
                                fill="#6c63ff"
                            />
                            <rect
                                x="694.55"
                                y="159.55"
                                width="9.91"
                                height="14.87"
                                rx="4.17"
                                ry="4.17"
                                fill="#6c63ff"
                            />
                            <ellipse
                                cx="673.9"
                                cy="166.99"
                                rx="27.67"
                                ry="3.72"
                                fill="#6c63ff"
                            />
                            <ellipse
                                cx="725.12"
                                cy="166.99"
                                rx="27.67"
                                ry="3.72"
                                fill="#6c63ff"
                            />
                            <rect
                                x="888.28"
                                y="170.71"
                                width="13.22"
                                height="6.61"
                                rx="2.78"
                                ry="2.78"
                                fill="#6c63ff"
                            />
                            <rect
                                x="889.52"
                                y="159.55"
                                width="9.91"
                                height="14.87"
                                rx="4.17"
                                ry="4.17"
                                fill="#6c63ff"
                            />
                            <ellipse
                                cx="868.86"
                                cy="166.99"
                                rx="27.67"
                                ry="3.72"
                                fill="#6c63ff"
                                className="wing1"
                            />
                            <ellipse
                                cx="920.08"
                                cy="166.99"
                                rx="27.67"
                                ry="3.72"
                                fill="#6c63ff"
                            />
                            <ellipse
                                cx="673.9"
                                cy="166.99"
                                rx="27.67"
                                ry="3.72"
                                fill="#f5f5f5"
                                opacity="0.2"
                            />
                            <ellipse
                                cx="725.12"
                                cy="166.99"
                                rx="27.67"
                                ry="3.72"
                                fill="#f5f5f5"
                                opacity="0.2"
                            />
                            <ellipse
                                cx="868.86"
                                cy="166.99"
                                rx="27.67"
                                ry="3.72"
                                fill="#f5f5f5"
                                opacity="0.2"
                            />
                            <ellipse
                                cx="920.08"
                                cy="166.99"
                                rx="27.67"
                                ry="3.72"
                                fill="#f5f5f5"
                                opacity="0.2"
                            />
                            <rect
                                x="780.47"
                                y="202.1"
                                width="33.04"
                                height="13.22"
                                rx="5.56"
                                ry="5.56"
                                fill="#6c63ff"
                            />
                            <rect
                                x="780.47"
                                y="202.1"
                                width="33.04"
                                height="13.22"
                                rx="5.56"
                                ry="5.56"
                                fill="#f5f5f5"
                                opacity="0.2"
                            />
</svg>